<svg width="24" height="24" viewBox="0 0 24 24" fill="none" xmlns="http://www.w3.org/2000/svg">
<g clip-path="url(#clip0_4530_75980)">
<path d="M12.3137 2.41425C11.6138 1.71438 11.0327 1.13325 9.90197 2.03752C9.62986 2.25512 9.53521 2.62075 9.57725 2.96662C9.70589 4.02483 9.75951 6.38266 8.07107 8.07111C6.38262 9.75955 4.02479 9.70593 2.96657 9.5773C2.62071 9.53525 2.25508 9.6299 2.03748 9.90201C1.13321 11.0327 1.71434 11.6139 2.41421 12.3137L12.3137 22.2132C13.0948 22.9943 13.7279 23.6275 15.1421 22.2132C15.1421 22.2132 13.9632 19.1495 16.5563 16.5564C19.2665 13.8462 22.2132 15.1422 22.2132 15.1422C23.6274 13.728 22.9943 13.0948 22.2132 12.3137L12.3137 2.41425Z" stroke="black" stroke-width="2" stroke-linecap="round" stroke-linejoin="round"/>
<path d="M8.89514 18.3241L18.0875 9.13171" stroke="black" stroke-width="2" stroke-linecap="round" stroke-linejoin="round" stroke-dasharray="4 4"/>
</g>
<defs>
<clipPath id="clip0_4530_75980">
<rect width="24" height="24" fill="white"/>
</clipPath>
</defs>
</svg>
