<svg width="24" height="24" viewBox="0 0 24 24" fill="none" xmlns="http://www.w3.org/2000/svg">
<mask id="path-1-inside-1_3703_74237" fill="white">
<path d="M20.141 6.85715C22.235 6.64286 23.3718 7.92858 24 8.78572C23.4167 5.4 21.4672 4.85715 20.141 4.92857V3L17 5.78571L20.141 9V6.85715Z"/>
</mask>
<path d="M24 8.78572L25.971 8.44614L22.3869 9.968L24 8.78572ZM20.141 6.85715H18.141V5.05138L19.9374 4.86754L20.141 6.85715ZM17 5.78571L15.5696 7.18353L14.1025 5.68222L15.673 4.2894L17 5.78571ZM20.141 3L18.814 1.50369L22.141 -1.447V3H20.141ZM20.141 4.92857L20.2486 6.92568L18.141 7.03918V4.92857H20.141ZM20.141 9H22.141V13.9082L18.7106 10.3978L20.141 9ZM22.3869 9.968C22.1225 9.6073 21.8544 9.30512 21.538 9.10158C21.2645 8.92557 20.9058 8.78933 20.3446 8.84676L19.9374 4.86754C23.1422 4.53958 24.8806 6.60399 25.6131 7.60344L22.3869 9.968ZM15.673 4.2894L18.814 1.50369L21.4681 4.49631L18.327 7.28202L15.673 4.2894ZM22.141 3V4.92857H18.141V3H22.141ZM20.0335 2.93147C21.0033 2.87924 22.3398 3.04466 23.5568 3.96649C24.7925 4.90257 25.6186 6.40093 25.971 8.44614L22.029 9.1253C21.7981 7.78479 21.3578 7.31886 21.1414 7.15494C20.9062 6.97678 20.605 6.90648 20.2486 6.92568L20.0335 2.93147ZM22.141 6.85715V9H18.141V6.85715H22.141ZM18.7106 10.3978L15.5696 7.18353L18.4304 4.3879L21.5714 7.60218L18.7106 10.3978Z" fill="#0F0F0F" mask="url(#path-1-inside-1_3703_74237)"/>
<path d="M23 15V19C23 19.5304 22.7893 20.0391 22.4142 20.4142C22.0391 20.7893 21.5304 21 21 21H3C2.46957 21 1.96086 20.7893 1.58579 20.4142C1.21071 20.0391 1 19.5304 1 19V9C1 8.46957 1.21071 7.96086 1.58579 7.58579C1.96086 7.21071 2.46957 7 3 7H15L23 15Z" stroke="#0F0F0F" stroke-width="2" stroke-linecap="round" stroke-linejoin="round"/>
<path d="M9.11523 16.0771V17H6.59961V16.0771H9.11523ZM7.02686 12.0234V17H5.82715V12.0234H7.02686ZM10.7832 13.3018V17H9.62793V13.3018H10.7832ZM9.55957 12.3481C9.55957 12.1841 9.61882 12.0496 9.7373 11.9448C9.85579 11.84 10.0096 11.7876 10.1987 11.7876C10.3879 11.7876 10.5417 11.84 10.6602 11.9448C10.7786 12.0496 10.8379 12.1841 10.8379 12.3481C10.8379 12.5122 10.7786 12.6466 10.6602 12.7515C10.5417 12.8563 10.3879 12.9087 10.1987 12.9087C10.0096 12.9087 9.85579 12.8563 9.7373 12.7515C9.61882 12.6466 9.55957 12.5122 9.55957 12.3481ZM12.8271 16.2104L13.5552 13.3018H14.7686L13.5586 17H12.8408L12.8271 16.2104ZM12.3965 13.3018L13.1143 16.2104L13.1074 17H12.3862L11.1797 13.3018H12.3965ZM16.8535 17.0684C16.5527 17.0684 16.2839 17.0216 16.0469 16.9282C15.8099 16.8325 15.6094 16.7015 15.4453 16.5352C15.2835 16.3688 15.1593 16.1774 15.0728 15.9609C14.9884 15.7445 14.9463 15.5155 14.9463 15.2739V15.144C14.9463 14.8729 14.9839 14.6222 15.0591 14.3921C15.1343 14.1597 15.2459 13.9569 15.394 13.7837C15.5422 13.6105 15.7279 13.4761 15.9512 13.3804C16.1745 13.2824 16.4342 13.2334 16.7305 13.2334C16.9925 13.2334 17.2272 13.2756 17.4346 13.3599C17.6419 13.4442 17.8174 13.5649 17.9609 13.7222C18.1068 13.8794 18.2173 14.0697 18.2925 14.293C18.37 14.5163 18.4087 14.7669 18.4087 15.0449V15.5132H15.3872V14.792H17.2842V14.7031C17.2865 14.5801 17.2648 14.4753 17.2192 14.3887C17.1759 14.3021 17.1121 14.236 17.0278 14.1904C16.9435 14.1449 16.841 14.1221 16.7202 14.1221C16.5949 14.1221 16.4912 14.1494 16.4092 14.2041C16.3294 14.2588 16.2668 14.334 16.2212 14.4297C16.1779 14.5231 16.1471 14.6313 16.1289 14.7544C16.1107 14.8774 16.1016 15.0073 16.1016 15.144V15.2739C16.1016 15.4106 16.1198 15.5348 16.1562 15.6465C16.195 15.7581 16.2497 15.8538 16.3203 15.9336C16.3932 16.0111 16.4798 16.0715 16.5801 16.1147C16.6826 16.158 16.7988 16.1797 16.9287 16.1797C17.0859 16.1797 17.2409 16.1501 17.3936 16.0908C17.5462 16.0316 17.6772 15.9336 17.7866 15.7969L18.3096 16.4189C18.2344 16.526 18.1273 16.6297 17.9883 16.73C17.8516 16.8302 17.6875 16.9123 17.4961 16.9761C17.3047 17.0376 17.0905 17.0684 16.8535 17.0684Z" fill="#0F0F0F"/>
<circle cx="4" cy="10" r="1" fill="#0F0F0F"/>
</svg>
