<svg width="24" height="24" viewBox="0 0 24 24" fill="none" xmlns="http://www.w3.org/2000/svg">
<mask id="path-1-inside-1_3709_74253" fill="white">
<path d="M10.8718 15.2143C17.453 14.5357 21.0256 18.2857 23 21C21 11.6785 15.0399 8.88097 10.8718 9.10714V3L1 11.8214L10.8718 22V15.2143Z"/>
</mask>
<path d="M23 21L24.9555 20.5804L21.3826 22.1765L23 21ZM10.8718 15.2143H8.87179V13.4099L10.6667 13.2249L10.8718 15.2143ZM1 11.8214L-0.435684 13.2138L-1.88614 11.7183L-0.332647 10.3301L1 11.8214ZM10.8718 3L9.53915 1.50867L12.8718 3H10.8718ZM10.8718 9.10714L10.9802 11.1042L8.87179 11.2186V9.10714H10.8718ZM10.8718 22H12.8718V26.9349L9.43611 23.3924L10.8718 22ZM21.3826 22.1765C19.5747 19.691 16.6062 16.6336 11.0769 17.2038L10.6667 13.2249C18.2998 12.4378 22.4766 16.8805 24.6174 19.8235L21.3826 22.1765ZM-0.332647 10.3301L9.53915 1.50867L12.2044 4.49133L2.33265 13.3128L-0.332647 10.3301ZM12.8718 3V9.10714H8.87179V3H12.8718ZM10.7634 7.11008C16.0153 6.8251 22.7712 10.4 24.9555 20.5804L21.0445 21.4196C19.2288 12.9571 14.0645 10.9368 10.9802 11.1042L10.7634 7.11008ZM12.8718 15.2143V22H8.87179V15.2143H12.8718ZM9.43611 23.3924L-0.435684 13.2138L2.43568 10.429L12.3075 20.6076L9.43611 23.3924Z" fill="#0F0F0F" mask="url(#path-1-inside-1_3709_74253)"/>
</svg>
