<svg width="42" height="42" viewBox="0 0 42 42" fill="none" xmlns="http://www.w3.org/2000/svg">
<path d="M0 2.46108C0 1.10186 1.10186 0 2.46108 0H18.0479C19.4071 0 20.509 1.10186 20.509 2.46108V18.0479C20.509 19.4071 19.4071 20.509 18.0479 20.509H2.46108C1.10186 20.509 0 19.4071 0 18.0479V2.46108Z" fill="#CA9BC6"/>
<path fill-rule="evenodd" clip-rule="evenodd" d="M18.0479 1H2.46108C1.65415 1 1 1.65415 1 2.46108V18.0479C1 18.8549 1.65415 19.509 2.46108 19.509H18.0479C18.8549 19.509 19.509 18.8549 19.509 18.0479V2.46108C19.509 1.65415 18.8549 1 18.0479 1ZM2.46108 0C1.10186 0 0 1.10186 0 2.46108V18.0479C0 19.4071 1.10186 20.509 2.46108 20.509H18.0479C19.4071 20.509 20.509 19.4071 20.509 18.0479V2.46108C20.509 1.10186 19.4071 0 18.0479 0H2.46108Z" fill="#CA9BC6"/>
<path fill-rule="evenodd" clip-rule="evenodd" d="M0.302734 35.9627C0.302734 38.2643 0.302734 39.4151 0.855098 40.2417C1.09422 40.5996 1.40149 40.9069 1.75937 41.146C2.58604 41.6984 3.73683 41.6984 6.03841 41.6984H15.0655C17.3179 41.6984 18.4441 41.6984 19.3577 40.9323C19.687 40.6562 20.0901 40.1152 20.2605 39.7207C20.7334 38.6262 20.4777 37.7693 19.9663 36.0554C17.982 29.4058 12.5951 24.019 5.94562 22.0348C4.23182 21.5234 3.37493 21.2677 2.28041 21.7406C1.88591 21.911 1.34494 22.3141 1.06882 22.6434C0.302734 23.557 0.302734 24.6832 0.302734 26.9355L0.302734 35.9627Z" fill="#CA9BC6"/>
<path fill-rule="evenodd" clip-rule="evenodd" d="M6.03841 40.6984H15.0655C16.2195 40.6984 16.9821 40.6961 17.5736 40.6125C18.1222 40.5349 18.4398 40.3969 18.7152 40.166C18.9251 39.99 19.2339 39.5756 19.3425 39.3241C19.6465 38.6206 19.5428 38.1337 19.008 36.3414C17.1202 30.0148 11.9861 24.8809 5.65968 22.9931C3.86742 22.4583 3.38052 22.3546 2.677 22.6586C2.4255 22.7672 2.01111 23.076 1.83508 23.2859C1.60419 23.5613 1.46621 23.8789 1.38865 24.4275C1.30502 25.019 1.30273 25.7816 1.30273 26.9355L1.30273 35.9627C1.30273 37.1343 1.30394 37.9377 1.36665 38.5541C1.42765 39.1538 1.53847 39.4645 1.68657 39.6862C1.85273 39.9349 2.06625 40.1484 2.31494 40.3145C2.53657 40.4626 2.84734 40.5735 3.447 40.6345C4.06337 40.6972 4.86681 40.6984 6.03841 40.6984ZM0.855098 40.2417C0.302734 39.4151 0.302734 38.2643 0.302734 35.9627L0.302734 26.9355C0.302734 24.6832 0.302734 23.557 1.06882 22.6434C1.34494 22.3141 1.88591 21.911 2.28041 21.7406C3.37493 21.2677 4.23182 21.5234 5.94562 22.0348C12.5951 24.019 17.982 29.4058 19.9663 36.0554C20.4777 37.7693 20.7334 38.6262 20.2605 39.7207C20.0901 40.1152 19.687 40.6562 19.3577 40.9323C18.4441 41.6984 17.3179 41.6984 15.0655 41.6984H6.03841C3.73683 41.6984 2.58604 41.6984 1.75937 41.146C1.40149 40.9069 1.09422 40.5996 0.855098 40.2417Z" fill="#CA9BC6"/>
<path fill-rule="evenodd" clip-rule="evenodd" d="M40.5636 0.176624L39.7975 2.02408C39.7617 2.00923 39.7208 2.00003 39.6727 2.00003L37.6909 2.00003L37.6909 3.01409e-05L39.6727 3.03141e-05C39.9883 3.03417e-05 40.2892 0.0628336 40.5636 0.176624ZM33.7273 2.97944e-05L33.7273 2.00003L31.7455 2.00003C31.1917 2.00003 30.6525 2.05429 30.1323 2.15719L29.7442 0.195214C30.3915 0.0671644 31.0606 2.95612e-05 31.7455 2.96211e-05L33.7273 2.97944e-05ZM26.0479 1.72724L27.1606 3.38918C26.2595 3.9924 25.4834 4.76858 24.8801 5.66961L23.2182 4.55697C23.9669 3.4387 24.9297 2.4759 26.0479 1.72724ZM21.6862 8.25324L23.6482 8.64138C23.5453 9.16151 23.491 9.70069 23.491 10.2545C23.491 10.8084 23.5453 11.3476 23.6482 11.8677L21.6862 12.2558C21.5581 11.6086 21.491 10.9394 21.491 10.2545C21.491 9.56968 21.5581 8.90051 21.6862 8.25324ZM23.2182 15.9521L24.8801 14.8395C25.4834 15.7405 26.2595 16.5167 27.1606 17.1199L26.0479 18.7818C24.9297 18.0332 23.9669 17.0704 23.2182 15.9521ZM29.7442 20.3138C30.3915 20.4419 31.0606 20.509 31.7455 20.509C32.4303 20.509 33.0995 20.4419 33.7468 20.3138L33.3586 18.3519C32.8385 18.4548 32.2993 18.509 31.7455 18.509C31.1917 18.509 30.6525 18.4548 30.1323 18.3519L29.7442 20.3138ZM37.4431 18.7818C38.5613 18.0332 39.5241 17.0704 40.2728 15.9521L38.6109 14.8395C38.0076 15.7405 37.2314 16.5167 36.3304 17.1199L37.4431 18.7818ZM42 4.3091L40 4.3091L40 2.32729C40 2.27923 39.9908 2.23836 39.976 2.20255L41.8234 1.43645C41.9372 1.71085 42 2.01174 42 2.32729L42 4.3091ZM42 8.27272L40 8.27272L40 10.2545C40 10.8084 39.9457 11.3476 39.8428 11.8677L41.8048 12.2558C41.9329 11.6086 42 10.9394 42 10.2545L42 8.27272Z" fill="#CA9BC6"/>
<path d="M21.4902 31.7455C21.4902 26.0821 26.0813 21.491 31.7447 21.491V21.491C37.4081 21.491 41.9992 26.0821 41.9992 31.7455V31.7455C41.9992 37.4089 37.4081 42 31.7447 42H23.8175C22.5322 42 21.4902 40.958 21.4902 39.6727V31.7455Z" fill="#CA9BC6"/>
<path fill-rule="evenodd" clip-rule="evenodd" d="M23.8175 41H31.7447C36.8559 41 40.9992 36.8566 40.9992 31.7455C40.9992 26.6343 36.8559 22.491 31.7447 22.491C26.6336 22.491 22.4902 26.6343 22.4902 31.7455V39.6727C22.4902 40.4057 23.0845 41 23.8175 41ZM31.7447 21.491C26.0813 21.491 21.4902 26.0821 21.4902 31.7455V39.6727C21.4902 40.958 22.5322 42 23.8175 42H31.7447C37.4081 42 41.9992 37.4089 41.9992 31.7455C41.9992 26.0821 37.4081 21.491 31.7447 21.491Z" fill="#CA9BC6"/>
</svg>
