<svg width="250" height="250" viewBox="0 0 250 250" fill="none" xmlns="http://www.w3.org/2000/svg">
<path fill-rule="evenodd" clip-rule="evenodd" d="M250 0H0V250H250V0ZM219.533 39.4168C225 47.5987 225 58.9884 225 81.768L225 171.113C225 193.405 225 204.552 217.418 213.594C214.685 216.853 209.331 220.843 205.426 222.53C194.593 227.21 186.112 224.679 169.15 219.618C103.338 199.979 50.022 146.664 30.3828 80.8503C25.3212 63.8879 22.7904 55.4067 27.4704 44.5738C29.1573 40.6693 33.1471 35.3151 36.4062 32.5823C45.4485 25 56.5948 25 78.8874 25L168.232 25C191.012 25 202.401 25 210.583 30.4669C214.125 32.8336 217.166 35.8748 219.533 39.4168Z" fill="#FFB71B"/>
</svg>
