<svg width="450" height="250" viewBox="0 0 450 250" fill="none" xmlns="http://www.w3.org/2000/svg">
<path fill-rule="evenodd" clip-rule="evenodd" d="M450 0H0V250H450V0ZM77.3716 25H77.3717L373.372 25C395.494 25 406.555 25 415.462 32.4389C418.687 35.1326 422.604 40.3597 424.283 44.2118C428.921 54.8498 426.442 63.321 421.484 80.2635C397.026 163.842 318.484 225 225.372 225C132.26 225 53.7178 163.842 29.2593 80.2634C24.3013 63.3209 21.8222 54.8497 26.46 44.2117C28.1393 40.3596 32.056 35.1325 35.2814 32.4388C44.1886 25 55.2496 25 77.3716 25Z" fill="#FFB71B"/>
</svg>
